# xmcd
#
# Track frame offsets: 
#        150
#        12101
#        23532
#        38752
#        51911
#        64623
#        78061
#        96200
#        108535
#        120712
#        132639
#        143334
#        156811
#        169025
#        180302
#        192586
#
# Disc length: 2754 seconds
#
# Revision: 2
# Processed by: cddbd v1.5.2PL0 Copyright (c) Steve Scherf et al.
# Submitted via: ExactAudioCopy v1.1
#
DISCID=c60ac010
DTITLE=Little Milton - Greatest Hits:  The Chess 50th Anniversary Coll
DTITLE=ection
DYEAR=1900
DGENRE=
TTITLE0=We're Gonna Make It (stereo)
TTITLE1=So Mean To Me (mono)
TTITLE2=Blind Man (stereo)
TTITLE3=Who's Cheating Who (stereo)
TTITLE4=We Got The Winning Hand (stereo)
TTITLE5=Man Loves Two (Man's Temptation) (stereo)
TTITLE6=I Feel So Bad (stereo)
TTITLE7=More And More (stereo)
TTITLE8=Let Me Down Easy (stereo)
TTITLE9=Grits Ain't Groceries (stereo)
TTITLE10=Just A Little Bit (stereo)
TTITLE11=Let's Get Together (stereo)
TTITLE12=Poor Man's Song (stereo)
TTITLE13=I Play Dirty (stereo)
TTITLE14=Baby, I Love You (stereo)
TTITLE15=If Walls Could Talk (stereo)
EXTD=
EXTT0=
EXTT1=
EXTT2=
EXTT3=
EXTT4=
EXTT5=
EXTT6=
EXTT7=
EXTT8=
EXTT9=
EXTT10=
EXTT11=
EXTT12=
EXTT13=
EXTT14=
EXTT15=
PLAYORDER=
